# MagicaVoxel @ Ephtracy

# group
o 

# material
mtllib SimpleBullet.mtl
usemtl palette

# normals
vn -1 0 0
vn 1 0 0
vn 0 0 1
vn 0 0 -1
vn 0 -1 0
vn 0 1 0

# texcoords
vt 0.0449219 0.5
vt 0.205078 0.5
vt 0.611328 0.5

# verts
v -0.3 -0.1 0.5
v -0.3 -0.1 -0.4
v -0.3 -0.1 -0.5
v -0.3 -0.1 -0.6
v -0.3 0.1 0.5
v -0.3 0.1 -0.4
v -0.3 0.1 -0.5
v -0.3 0.1 -0.6
v -0.2 -0.2 0.5
v -0.2 -0.2 -0.4
v -0.2 -0.2 -0.5
v -0.2 -0.2 -0.6
v -0.2 -0.1 0.5
v -0.2 -0.1 -0.4
v -0.2 -0.1 -0.5
v -0.2 -0.1 -0.6
v -0.2 0.1 0.5
v -0.2 0.1 -0.4
v -0.2 0.1 -0.5
v -0.2 0.1 -0.6
v -0.2 0.2 0.5
v -0.2 0.2 -0.4
v -0.2 0.2 -0.5
v -0.2 0.2 -0.6
v -0.1 -0.3 0.5
v -0.1 -0.3 -0.4
v -0.1 -0.3 -0.5
v -0.1 -0.3 -0.6
v -0.1 -0.2 0.5
v -0.1 -0.2 -0.4
v -0.1 -0.2 -0.5
v -0.1 -0.2 -0.6
v -0.1 -0.1 -0.4
v -0.1 -0.1 -0.5
v -0.1 0.1 -0.4
v -0.1 0.1 -0.5
v -0.1 0.2 0.5
v -0.1 0.2 -0.4
v -0.1 0.2 -0.5
v -0.1 0.2 -0.6
v -0.1 0.3 0.5
v -0.1 0.3 -0.4
v -0.1 0.3 -0.5
v -0.1 0.3 -0.6
v 0.1 -0.3 0.5
v 0.1 -0.3 -0.4
v 0.1 -0.3 -0.5
v 0.1 -0.3 -0.6
v 0.1 -0.2 0.5
v 0.1 -0.2 -0.4
v 0.1 -0.2 -0.5
v 0.1 -0.2 -0.6
v 0.1 -0.1 -0.4
v 0.1 -0.1 -0.5
v 0.1 0.1 -0.4
v 0.1 0.1 -0.5
v 0.1 0.2 0.5
v 0.1 0.2 -0.4
v 0.1 0.2 -0.5
v 0.1 0.2 -0.6
v 0.1 0.3 0.5
v 0.1 0.3 -0.4
v 0.1 0.3 -0.5
v 0.1 0.3 -0.6
v 0.2 -0.2 0.5
v 0.2 -0.2 -0.4
v 0.2 -0.2 -0.5
v 0.2 -0.2 -0.6
v 0.2 -0.1 0.5
v 0.2 -0.1 -0.4
v 0.2 -0.1 -0.5
v 0.2 -0.1 -0.6
v 0.2 0.1 0.5
v 0.2 0.1 -0.4
v 0.2 0.1 -0.5
v 0.2 0.1 -0.6
v 0.2 0.2 0.5
v 0.2 0.2 -0.4
v 0.2 0.2 -0.5
v 0.2 0.2 -0.6
v 0.3 -0.1 0.5
v 0.3 -0.1 -0.4
v 0.3 -0.1 -0.5
v 0.3 -0.1 -0.6
v 0.3 0.1 0.5
v 0.3 0.1 -0.4
v 0.3 0.1 -0.5
v 0.3 0.1 -0.6
v -0.3 -0.1 0.5
v -0.3 0.1 0.5
v -0.2 -0.2 0.5
v -0.2 -0.1 0.5
v -0.2 0.1 0.5
v -0.2 0.2 0.5
v -0.1 -0.3 0.5
v -0.1 -0.2 0.5
v -0.1 0.2 0.5
v -0.1 0.3 0.5
v 0.1 -0.3 0.5
v 0.1 -0.2 0.5
v 0.1 0.2 0.5
v 0.1 0.3 0.5
v 0.2 -0.2 0.5
v 0.2 -0.1 0.5
v 0.2 0.1 0.5
v 0.2 0.2 0.5
v 0.3 -0.1 0.5
v 0.3 0.1 0.5
v -0.3 -0.1 -0.5
v -0.3 0.1 -0.5
v -0.2 -0.2 -0.5
v -0.2 -0.1 -0.5
v -0.2 0.1 -0.5
v -0.2 0.2 -0.5
v -0.1 -0.3 -0.5
v -0.1 -0.2 -0.5
v -0.1 -0.1 -0.5
v -0.1 0.1 -0.5
v -0.1 0.2 -0.5
v -0.1 0.3 -0.5
v 0.1 -0.3 -0.5
v 0.1 -0.2 -0.5
v 0.1 -0.1 -0.5
v 0.1 0.1 -0.5
v 0.1 0.2 -0.5
v 0.1 0.3 -0.5
v 0.2 -0.2 -0.5
v 0.2 -0.1 -0.5
v 0.2 0.1 -0.5
v 0.2 0.2 -0.5
v 0.3 -0.1 -0.5
v 0.3 0.1 -0.5
v -0.3 -0.1 -0.4
v -0.3 0.1 -0.4
v -0.2 -0.2 -0.4
v -0.2 -0.1 -0.4
v -0.2 0.1 -0.4
v -0.2 0.2 -0.4
v -0.1 -0.3 -0.4
v -0.1 -0.2 -0.4
v -0.1 -0.1 -0.4
v -0.1 0.1 -0.4
v -0.1 0.2 -0.4
v -0.1 0.3 -0.4
v 0.1 -0.3 -0.4
v 0.1 -0.2 -0.4
v 0.1 -0.1 -0.4
v 0.1 0.1 -0.4
v 0.1 0.2 -0.4
v 0.1 0.3 -0.4
v 0.2 -0.2 -0.4
v 0.2 -0.1 -0.4
v 0.2 0.1 -0.4
v 0.2 0.2 -0.4
v 0.3 -0.1 -0.4
v 0.3 0.1 -0.4
v -0.3 -0.1 -0.6
v -0.3 0.1 -0.6
v -0.2 -0.2 -0.6
v -0.2 -0.1 -0.6
v -0.2 0.1 -0.6
v -0.2 0.2 -0.6
v -0.1 -0.3 -0.6
v -0.1 -0.2 -0.6
v -0.1 0.2 -0.6
v -0.1 0.3 -0.6
v 0.1 -0.3 -0.6
v 0.1 -0.2 -0.6
v 0.1 0.2 -0.6
v 0.1 0.3 -0.6
v 0.2 -0.2 -0.6
v 0.2 -0.1 -0.6
v 0.2 0.1 -0.6
v 0.2 0.2 -0.6
v 0.3 -0.1 -0.6
v 0.3 0.1 -0.6
v -0.1 -0.3 0.5
v 0.1 -0.3 0.5
v -0.1 -0.3 -0.4
v 0.1 -0.3 -0.4
v -0.1 -0.3 -0.5
v 0.1 -0.3 -0.5
v -0.1 -0.3 -0.6
v 0.1 -0.3 -0.6
v -0.2 -0.2 0.5
v -0.1 -0.2 0.5
v 0.1 -0.2 0.5
v 0.2 -0.2 0.5
v -0.2 -0.2 -0.4
v -0.1 -0.2 -0.4
v 0.1 -0.2 -0.4
v 0.2 -0.2 -0.4
v -0.2 -0.2 -0.5
v -0.1 -0.2 -0.5
v 0.1 -0.2 -0.5
v 0.2 -0.2 -0.5
v -0.2 -0.2 -0.6
v -0.1 -0.2 -0.6
v 0.1 -0.2 -0.6
v 0.2 -0.2 -0.6
v -0.3 -0.1 0.5
v -0.2 -0.1 0.5
v 0.2 -0.1 0.5
v 0.3 -0.1 0.5
v -0.3 -0.1 -0.4
v -0.2 -0.1 -0.4
v -0.1 -0.1 -0.4
v 0.1 -0.1 -0.4
v 0.2 -0.1 -0.4
v 0.3 -0.1 -0.4
v -0.3 -0.1 -0.5
v -0.2 -0.1 -0.5
v -0.1 -0.1 -0.5
v 0.1 -0.1 -0.5
v 0.2 -0.1 -0.5
v 0.3 -0.1 -0.5
v -0.3 -0.1 -0.6
v -0.2 -0.1 -0.6
v 0.2 -0.1 -0.6
v 0.3 -0.1 -0.6
v -0.3 0.1 0.5
v -0.2 0.1 0.5
v 0.2 0.1 0.5
v 0.3 0.1 0.5
v -0.3 0.1 -0.4
v -0.2 0.1 -0.4
v -0.1 0.1 -0.4
v 0.1 0.1 -0.4
v 0.2 0.1 -0.4
v 0.3 0.1 -0.4
v -0.3 0.1 -0.5
v -0.2 0.1 -0.5
v -0.1 0.1 -0.5
v 0.1 0.1 -0.5
v 0.2 0.1 -0.5
v 0.3 0.1 -0.5
v -0.3 0.1 -0.6
v -0.2 0.1 -0.6
v 0.2 0.1 -0.6
v 0.3 0.1 -0.6
v -0.2 0.2 0.5
v -0.1 0.2 0.5
v 0.1 0.2 0.5
v 0.2 0.2 0.5
v -0.2 0.2 -0.4
v -0.1 0.2 -0.4
v 0.1 0.2 -0.4
v 0.2 0.2 -0.4
v -0.2 0.2 -0.5
v -0.1 0.2 -0.5
v 0.1 0.2 -0.5
v 0.2 0.2 -0.5
v -0.2 0.2 -0.6
v -0.1 0.2 -0.6
v 0.1 0.2 -0.6
v 0.2 0.2 -0.6
v -0.1 0.3 0.5
v 0.1 0.3 0.5
v -0.1 0.3 -0.4
v 0.1 0.3 -0.4
v -0.1 0.3 -0.5
v 0.1 0.3 -0.5
v -0.1 0.3 -0.6
v 0.1 0.3 -0.6

# faces
f 5/3/1 2/3/1 1/3/1
f 6/3/1 2/3/1 5/3/1
f 7/1/1 4/1/1 3/1/1
f 8/1/1 4/1/1 7/1/1
f 13/3/1 10/3/1 9/3/1
f 14/3/1 10/3/1 13/3/1
f 15/1/1 12/1/1 11/1/1
f 16/1/1 12/1/1 15/1/1
f 18/2/1 15/2/1 14/2/1
f 19/2/1 15/2/1 18/2/1
f 21/3/1 18/3/1 17/3/1
f 22/3/1 18/3/1 21/3/1
f 23/1/1 20/1/1 19/1/1
f 24/1/1 20/1/1 23/1/1
f 29/3/1 26/3/1 25/3/1
f 30/3/1 26/3/1 29/3/1
f 31/1/1 28/1/1 27/1/1
f 32/1/1 28/1/1 31/1/1
f 33/2/1 31/2/1 30/2/1
f 34/2/1 31/2/1 33/2/1
f 38/2/1 36/2/1 35/2/1
f 39/2/1 36/2/1 38/2/1
f 41/3/1 38/3/1 37/3/1
f 42/3/1 38/3/1 41/3/1
f 43/1/1 40/1/1 39/1/1
f 44/1/1 40/1/1 43/1/1
f 45/3/2 46/3/2 49/3/2
f 49/3/2 46/3/2 50/3/2
f 47/1/2 48/1/2 51/1/2
f 51/1/2 48/1/2 52/1/2
f 50/2/2 51/2/2 53/2/2
f 53/2/2 51/2/2 54/2/2
f 55/2/2 56/2/2 58/2/2
f 58/2/2 56/2/2 59/2/2
f 57/3/2 58/3/2 61/3/2
f 61/3/2 58/3/2 62/3/2
f 59/1/2 60/1/2 63/1/2
f 63/1/2 60/1/2 64/1/2
f 65/3/2 66/3/2 69/3/2
f 69/3/2 66/3/2 70/3/2
f 67/1/2 68/1/2 71/1/2
f 71/1/2 68/1/2 72/1/2
f 70/2/2 71/2/2 74/2/2
f 74/2/2 71/2/2 75/2/2
f 73/3/2 74/3/2 77/3/2
f 77/3/2 74/3/2 78/3/2
f 75/1/2 76/1/2 79/1/2
f 79/1/2 76/1/2 80/1/2
f 81/3/2 82/3/2 85/3/2
f 85/3/2 82/3/2 86/3/2
f 83/1/2 84/1/2 87/1/2
f 87/1/2 84/1/2 88/1/2
f 92/3/3 90/3/3 89/3/3
f 93/3/3 90/3/3 92/3/3
f 96/3/3 92/3/3 91/3/3
f 96/3/3 94/3/3 93/3/3
f 96/3/3 93/3/3 92/3/3
f 97/3/3 94/3/3 96/3/3
f 99/3/3 96/3/3 95/3/3
f 99/3/3 98/3/3 97/3/3
f 99/3/3 97/3/3 96/3/3
f 100/3/3 98/3/3 99/3/3
f 101/3/3 98/3/3 100/3/3
f 102/3/3 98/3/3 101/3/3
f 103/3/3 101/3/3 100/3/3
f 104/3/3 101/3/3 103/3/3
f 105/3/3 101/3/3 104/3/3
f 106/3/3 101/3/3 105/3/3
f 107/3/3 105/3/3 104/3/3
f 108/3/3 105/3/3 107/3/3
f 112/1/3 110/1/3 109/1/3
f 113/1/3 110/1/3 112/1/3
f 116/1/3 112/1/3 111/1/3
f 117/1/3 112/1/3 116/1/3
f 118/1/3 114/1/3 113/1/3
f 119/1/3 114/1/3 118/1/3
f 121/1/3 116/1/3 115/1/3
f 122/1/3 116/1/3 121/1/3
f 125/1/3 120/1/3 119/1/3
f 126/1/3 120/1/3 125/1/3
f 127/1/3 123/1/3 122/1/3
f 128/1/3 123/1/3 127/1/3
f 129/1/3 125/1/3 124/1/3
f 130/1/3 125/1/3 129/1/3
f 131/1/3 129/1/3 128/1/3
f 132/1/3 129/1/3 131/1/3
f 133/3/4 134/3/4 136/3/4
f 136/3/4 134/3/4 137/3/4
f 135/3/4 136/3/4 140/3/4
f 140/3/4 136/3/4 141/3/4
f 137/3/4 138/3/4 142/3/4
f 142/3/4 138/3/4 143/3/4
f 139/3/4 140/3/4 145/3/4
f 145/3/4 140/3/4 146/3/4
f 143/3/4 144/3/4 149/3/4
f 149/3/4 144/3/4 150/3/4
f 146/3/4 147/3/4 151/3/4
f 151/3/4 147/3/4 152/3/4
f 148/3/4 149/3/4 153/3/4
f 153/3/4 149/3/4 154/3/4
f 152/3/4 153/3/4 155/3/4
f 155/3/4 153/3/4 156/3/4
f 157/1/4 158/1/4 160/1/4
f 160/1/4 158/1/4 161/1/4
f 159/1/4 160/1/4 164/1/4
f 161/1/4 162/1/4 164/1/4
f 160/1/4 161/1/4 164/1/4
f 164/1/4 162/1/4 165/1/4
f 163/1/4 164/1/4 167/1/4
f 165/1/4 166/1/4 167/1/4
f 164/1/4 165/1/4 167/1/4
f 167/1/4 166/1/4 168/1/4
f 168/1/4 166/1/4 169/1/4
f 169/1/4 166/1/4 170/1/4
f 168/1/4 169/1/4 171/1/4
f 171/1/4 169/1/4 172/1/4
f 172/1/4 169/1/4 173/1/4
f 173/1/4 169/1/4 174/1/4
f 172/1/4 173/1/4 175/1/4
f 175/1/4 173/1/4 176/1/4
f 179/3/5 178/3/5 177/3/5
f 180/3/5 178/3/5 179/3/5
f 183/1/5 182/1/5 181/1/5
f 184/1/5 182/1/5 183/1/5
f 189/3/5 186/3/5 185/3/5
f 190/3/5 186/3/5 189/3/5
f 191/3/5 188/3/5 187/3/5
f 192/3/5 188/3/5 191/3/5
f 194/2/5 191/2/5 190/2/5
f 195/2/5 191/2/5 194/2/5
f 197/1/5 194/1/5 193/1/5
f 198/1/5 194/1/5 197/1/5
f 199/1/5 196/1/5 195/1/5
f 200/1/5 196/1/5 199/1/5
f 205/3/5 202/3/5 201/3/5
f 206/3/5 202/3/5 205/3/5
f 209/3/5 204/3/5 203/3/5
f 210/3/5 204/3/5 209/3/5
f 212/2/5 207/2/5 206/2/5
f 213/2/5 207/2/5 212/2/5
f 214/2/5 209/2/5 208/2/5
f 215/2/5 209/2/5 214/2/5
f 217/1/5 212/1/5 211/1/5
f 218/1/5 212/1/5 217/1/5
f 219/1/5 216/1/5 215/1/5
f 220/1/5 216/1/5 219/1/5
f 221/3/6 222/3/6 225/3/6
f 225/3/6 222/3/6 226/3/6
f 223/3/6 224/3/6 229/3/6
f 229/3/6 224/3/6 230/3/6
f 226/2/6 227/2/6 232/2/6
f 232/2/6 227/2/6 233/2/6
f 228/2/6 229/2/6 234/2/6
f 234/2/6 229/2/6 235/2/6
f 231/1/6 232/1/6 237/1/6
f 237/1/6 232/1/6 238/1/6
f 235/1/6 236/1/6 239/1/6
f 239/1/6 236/1/6 240/1/6
f 241/3/6 242/3/6 245/3/6
f 245/3/6 242/3/6 246/3/6
f 243/3/6 244/3/6 247/3/6
f 247/3/6 244/3/6 248/3/6
f 246/2/6 247/2/6 250/2/6
f 250/2/6 247/2/6 251/2/6
f 249/1/6 250/1/6 253/1/6
f 253/1/6 250/1/6 254/1/6
f 251/1/6 252/1/6 255/1/6
f 255/1/6 252/1/6 256/1/6
f 257/3/6 258/3/6 259/3/6
f 259/3/6 258/3/6 260/3/6
f 261/1/6 262/1/6 263/1/6
f 263/1/6 262/1/6 264/1/6
